<?xml version="1.0" encoding="UTF-8" standalone="no"?>
<!DOCTYPE svg PUBLIC "-//W3C//DTD SVG 1.1//EN"
 "http://www.w3.org/Graphics/SVG/1.1/DTD/svg11.dtd">
<!-- Generated by graphviz version 2.28.0 (20121213.1421)
 -->
<!-- Title: ll Pages: 1 -->
<svg width="220pt" height="32pt"
 viewBox="0.00 0.00 220.00 32.00" xmlns="http://www.w3.org/2000/svg" xmlns:xlink="http://www.w3.org/1999/xlink">
<g id="graph1" class="graph" transform="scale(1 1) rotate(0) translate(4 28)">
<title>ll</title>
<polygon fill="white" stroke="white" points="-4,5 -4,-28 217,-28 217,5 -4,5"/>
<!-- A -->
<g id="node1" class="node"><title>A</title>
<polygon fill="none" stroke="black" points="-0.0551758,0.4 -0.0551758,-24.4 26.0552,-24.4 26.0552,0.4 -0.0551758,0.4"/>
<text text-anchor="middle" x="13" y="-6.4" font-family="Times,serif" font-size="14.00">A</text>
</g>
<!-- B -->
<g id="node3" class="node"><title>B</title>
<polygon fill="none" stroke="black" points="62.3311,0.4 62.3311,-24.4 87.6689,-24.4 87.6689,0.4 62.3311,0.4"/>
<text text-anchor="middle" x="75" y="-6.4" font-family="Times,serif" font-size="14.00">B</text>
</g>
<!-- A&#45;&gt;B -->
<g id="edge2" class="edge"><title>A&#45;&gt;B</title>
<path fill="none" stroke="black" d="M26.1419,-6.45135C33.6399,-5.29692 43.478,-4.9745 52.2832,-5.48408"/>
<polygon fill="black" stroke="black" points="51.9775,-8.97105 62.2845,-6.51831 52.6976,-2.00818 51.9775,-8.97105"/>
</g>
<!-- B&#45;&gt;A -->
<g id="edge8" class="edge"><title>B&#45;&gt;A</title>
<path fill="none" stroke="black" d="M62.2845,-17.4817C54.8769,-18.6679 45.065,-19.022 36.2217,-18.5442"/>
<polygon fill="black" stroke="black" points="36.4375,-15.0485 26.1419,-17.5486 35.7494,-22.0146 36.4375,-15.0485"/>
</g>
<!-- C -->
<g id="node4" class="node"><title>C</title>
<polygon fill="none" stroke="black" points="124.331,0.4 124.331,-24.4 149.669,-24.4 149.669,0.4 124.331,0.4"/>
<text text-anchor="middle" x="137" y="-6.4" font-family="Times,serif" font-size="14.00">C</text>
</g>
<!-- B&#45;&gt;C -->
<g id="edge3" class="edge"><title>B&#45;&gt;C</title>
<path fill="none" stroke="black" d="M87.8541,-6.49626C95.3323,-5.31399 105.22,-4.97289 114.089,-5.47298"/>
<polygon fill="black" stroke="black" points="113.867,-8.96844 124.171,-6.50016 114.577,-2.00449 113.867,-8.96844"/>
</g>
<!-- C&#45;&gt;B -->
<g id="edge7" class="edge"><title>C&#45;&gt;B</title>
<path fill="none" stroke="black" d="M124.171,-17.4998C116.698,-18.684 106.811,-19.0269 97.9404,-18.5287"/>
<polygon fill="black" stroke="black" points="98.1567,-15.0327 87.8541,-17.5037 97.449,-21.9968 98.1567,-15.0327"/>
</g>
<!-- D -->
<g id="node5" class="node"><title>D</title>
<polygon fill="none" stroke="black" points="185.945,0.4 185.945,-24.4 212.055,-24.4 212.055,0.4 185.945,0.4"/>
<text text-anchor="middle" x="199" y="-6.4" font-family="Times,serif" font-size="14.00">D</text>
</g>
<!-- C&#45;&gt;D -->
<g id="edge4" class="edge"><title>C&#45;&gt;D</title>
<path fill="none" stroke="black" d="M149.854,-6.49626C157.235,-5.32934 166.964,-4.98189 175.743,-5.45392"/>
<polygon fill="black" stroke="black" points="175.465,-8.94336 185.759,-6.43611 176.148,-1.97678 175.465,-8.94336"/>
</g>
<!-- D&#45;&gt;C -->
<g id="edge6" class="edge"><title>D&#45;&gt;C</title>
<path fill="none" stroke="black" d="M185.759,-17.5639C178.379,-18.6898 168.759,-19.0141 160.089,-18.5369"/>
<polygon fill="black" stroke="black" points="160.155,-15.0259 149.854,-17.5037 159.452,-21.9905 160.155,-15.0259"/>
</g>
</g>
</svg>
