<?xml version="1.0" encoding="UTF-8" standalone="no"?>
<!DOCTYPE svg PUBLIC "-//W3C//DTD SVG 1.1//EN"
 "http://www.w3.org/Graphics/SVG/1.1/DTD/svg11.dtd">
<!-- Generated by graphviz version 2.28.0 (20121213.1421)
 -->
<!-- Title: ll Pages: 1 -->
<svg width="344pt" height="76pt"
 viewBox="0.00 0.00 344.00 76.00" xmlns="http://www.w3.org/2000/svg" xmlns:xlink="http://www.w3.org/1999/xlink">
<g id="graph1" class="graph" transform="scale(1 1) rotate(0) translate(4 72)">
<title>ll</title>
<polygon fill="white" stroke="white" points="-4,5 -4,-72 341,-72 341,5 -4,5"/>
<!-- X -->
<g id="node1" class="node"><title>X</title>
<polygon fill="none" stroke="blue" points="-0.0551758,-43.6 -0.0551758,-68.4 26.0552,-68.4 26.0552,-43.6 -0.0551758,-43.6"/>
<text text-anchor="middle" x="13" y="-50.4" font-family="Times,serif" font-size="14.00" fill="blue">X</text>
</g>
<!-- Y -->
<g id="node2" class="node"><title>Y</title>
<polygon fill="none" stroke="blue" points="61.9448,-43.6 61.9448,-68.4 88.0552,-68.4 88.0552,-43.6 61.9448,-43.6"/>
<text text-anchor="middle" x="75" y="-50.4" font-family="Times,serif" font-size="14.00" fill="blue">Y</text>
</g>
<!-- X&#45;&gt;Y -->
<g id="edge2" class="edge"><title>X&#45;&gt;Y</title>
<path fill="none" stroke="blue" d="M26.1419,-50.4514C33.4612,-49.3244 43.0104,-48.9903 51.6519,-49.4491"/>
<polygon fill="blue" stroke="blue" points="51.5817,-52.959 61.8762,-50.4541 52.2666,-45.9925 51.5817,-52.959"/>
</g>
<!-- Y&#45;&gt;X -->
<g id="edge17" class="edge"><title>Y&#45;&gt;X</title>
<path fill="none" stroke="blue" d="M61.8762,-61.5459C54.5605,-62.6741 45.0124,-63.0095 36.3694,-62.5521"/>
<polygon fill="blue" stroke="blue" points="36.4359,-59.0419 26.1419,-61.5486 35.7523,-66.0084 36.4359,-59.0419"/>
</g>
<!-- Z -->
<g id="node3" class="node"><title>Z</title>
<polygon fill="none" stroke="blue" points="124.724,-43.6 124.724,-68.4 149.276,-68.4 149.276,-43.6 124.724,-43.6"/>
<text text-anchor="middle" x="137" y="-50.4" font-family="Times,serif" font-size="14.00" fill="blue">Z</text>
</g>
<!-- Y&#45;&gt;Z -->
<g id="edge3" class="edge"><title>Y&#45;&gt;Z</title>
<path fill="none" stroke="blue" d="M88.1419,-50.4514C95.7373,-49.2819 105.734,-48.9663 114.626,-49.5044"/>
<polygon fill="blue" stroke="blue" points="114.372,-52.9971 124.688,-50.5841 115.119,-46.0371 114.372,-52.9971"/>
</g>
<!-- Z&#45;&gt;Y -->
<g id="edge16" class="edge"><title>Z&#45;&gt;Y</title>
<path fill="none" stroke="blue" d="M124.688,-61.4159C117.274,-62.6482 107.33,-63.0268 98.3619,-62.5517"/>
<polygon fill="blue" stroke="blue" points="98.436,-59.0422 88.1419,-61.5486 97.7522,-66.0087 98.436,-59.0422"/>
</g>
<!-- B -->
<g id="node5" class="node"><title>B</title>
<polygon fill="none" stroke="black" points="186.331,-43.6 186.331,-68.4 211.669,-68.4 211.669,-43.6 186.331,-43.6"/>
<text text-anchor="middle" x="199" y="-50.4" font-family="Times,serif" font-size="14.00">B</text>
</g>
<!-- Z&#45;&gt;B -->
<g id="edge4" class="edge"><title>Z&#45;&gt;B</title>
<path fill="none" stroke="blue" d="M149.286,-50.5885C156.719,-49.3499 166.704,-48.9709 175.699,-49.4516"/>
<polygon fill="blue" stroke="blue" points="175.646,-52.9633 185.942,-50.4643 176.334,-45.9972 175.646,-52.9633"/>
</g>
<!-- B&#45;&gt;Z -->
<g id="edge14" class="edge"><title>B&#45;&gt;Z</title>
<path fill="none" stroke="red" d="M185.942,-61.5357C178.338,-62.7155 168.303,-63.0356 159.38,-62.496"/>
<polygon fill="red" stroke="red" points="159.602,-58.9998 149.286,-61.4115 158.854,-65.9597 159.602,-58.9998"/>
</g>
<!-- C -->
<g id="node7" class="node"><title>C</title>
<polygon fill="none" stroke="black" points="248.331,-43.6 248.331,-68.4 273.669,-68.4 273.669,-43.6 248.331,-43.6"/>
<text text-anchor="middle" x="261" y="-50.4" font-family="Times,serif" font-size="14.00">C</text>
</g>
<!-- B&#45;&gt;C -->
<g id="edge6" class="edge"><title>B&#45;&gt;C</title>
<path fill="none" stroke="black" d="M211.854,-50.4963C219.332,-49.314 229.22,-48.9729 238.089,-49.473"/>
<polygon fill="black" stroke="black" points="237.867,-52.9684 248.171,-50.5002 238.577,-46.0045 237.867,-52.9684"/>
</g>
<!-- C&#45;&gt;B -->
<g id="edge12" class="edge"><title>C&#45;&gt;B</title>
<path fill="none" stroke="black" d="M248.171,-61.4998C240.698,-62.684 230.811,-63.0269 221.94,-62.5287"/>
<polygon fill="black" stroke="black" points="222.157,-59.0327 211.854,-61.5037 221.449,-65.9968 222.157,-59.0327"/>
</g>
<!-- D -->
<g id="node8" class="node"><title>D</title>
<polygon fill="none" stroke="black" points="309.945,-43.6 309.945,-68.4 336.055,-68.4 336.055,-43.6 309.945,-43.6"/>
<text text-anchor="middle" x="323" y="-50.4" font-family="Times,serif" font-size="14.00">D</text>
</g>
<!-- C&#45;&gt;D -->
<g id="edge7" class="edge"><title>C&#45;&gt;D</title>
<path fill="none" stroke="black" d="M273.854,-50.4963C281.235,-49.3293 290.964,-48.9819 299.743,-49.4539"/>
<polygon fill="black" stroke="black" points="299.465,-52.9434 309.759,-50.4361 300.148,-45.9768 299.465,-52.9434"/>
</g>
<!-- D&#45;&gt;C -->
<g id="edge11" class="edge"><title>D&#45;&gt;C</title>
<path fill="none" stroke="black" d="M309.759,-61.5639C302.379,-62.6898 292.759,-63.0141 284.089,-62.5369"/>
<polygon fill="black" stroke="black" points="284.155,-59.0259 273.854,-61.5037 283.452,-65.9905 284.155,-59.0259"/>
</g>
<!-- A -->
<g id="node9" class="node"><title>A</title>
<polygon fill="none" stroke="black" points="123.945,0.4 123.945,-24.4 150.055,-24.4 150.055,0.4 123.945,0.4"/>
<text text-anchor="middle" x="137" y="-6.4" font-family="Times,serif" font-size="14.00">A</text>
</g>
<!-- A&#45;&gt;B -->
<g id="edge9" class="edge"><title>A&#45;&gt;B</title>
<path fill="none" stroke="black" d="M150.142,-20.9041C158.134,-26.7652 168.786,-34.576 178.01,-41.341"/>
<polygon fill="black" stroke="black" points="176.151,-44.3174 186.285,-47.4086 180.29,-38.6725 176.151,-44.3174"/>
</g>
</g>
</svg>
