<?xml version="1.0" encoding="UTF-8" standalone="no"?>
<!DOCTYPE svg PUBLIC "-//W3C//DTD SVG 1.1//EN"
 "http://www.w3.org/Graphics/SVG/1.1/DTD/svg11.dtd">
<!-- Generated by graphviz version 2.28.0 (20121213.1421)
 -->
<!-- Title: ll Pages: 1 -->
<svg width="412pt" height="76pt"
 viewBox="0.00 0.00 412.00 76.00" xmlns="http://www.w3.org/2000/svg" xmlns:xlink="http://www.w3.org/1999/xlink">
<g id="graph1" class="graph" transform="scale(1 1) rotate(0) translate(4 72)">
<title>ll</title>
<polygon fill="white" stroke="white" points="-4,5 -4,-72 409,-72 409,5 -4,5"/>
<!-- nil -->
<g id="node1" class="node"><title>nil</title>
<text text-anchor="middle" x="388" y="-28.4" font-family="Times,serif" font-size="14.00">nil</text>
</g>
<!-- A -->
<g id="node2" class="node"><title>A</title>
<polygon fill="none" stroke="black" points="123.945,-43.6 123.945,-68.4 150.055,-68.4 150.055,-43.6 123.945,-43.6"/>
<text text-anchor="middle" x="137" y="-50.4" font-family="Times,serif" font-size="14.00">A</text>
</g>
<!-- B -->
<g id="node4" class="node"><title>B</title>
<polygon fill="none" stroke="black" points="186.331,-21.6 186.331,-46.4 211.669,-46.4 211.669,-21.6 186.331,-21.6"/>
<text text-anchor="middle" x="199" y="-28.4" font-family="Times,serif" font-size="14.00">B</text>
</g>
<!-- A&#45;&gt;B -->
<g id="edge2" class="edge"><title>A&#45;&gt;B</title>
<path fill="none" stroke="black" d="M150.142,-51.548C157.805,-48.7383 167.912,-45.0324 176.862,-41.7505"/>
<polygon fill="black" stroke="black" points="178.101,-45.0244 186.285,-38.2957 175.691,-38.4522 178.101,-45.0244"/>
</g>
<!-- C -->
<g id="node5" class="node"><title>C</title>
<polygon fill="none" stroke="black" points="248.331,-21.6 248.331,-46.4 273.669,-46.4 273.669,-21.6 248.331,-21.6"/>
<text text-anchor="middle" x="261" y="-28.4" font-family="Times,serif" font-size="14.00">C</text>
</g>
<!-- B&#45;&gt;C -->
<g id="edge3" class="edge"><title>B&#45;&gt;C</title>
<path fill="none" stroke="black" d="M211.854,-34C219.332,-34 229.22,-34 238.089,-34"/>
<polygon fill="black" stroke="black" points="238.171,-37.5001 248.171,-34 238.171,-30.5001 238.171,-37.5001"/>
</g>
<!-- D -->
<g id="node6" class="node"><title>D</title>
<polygon fill="none" stroke="black" points="309.945,-21.6 309.945,-46.4 336.055,-46.4 336.055,-21.6 309.945,-21.6"/>
<text text-anchor="middle" x="323" y="-28.4" font-family="Times,serif" font-size="14.00">D</text>
</g>
<!-- C&#45;&gt;D -->
<g id="edge4" class="edge"><title>C&#45;&gt;D</title>
<path fill="none" stroke="black" d="M273.854,-34C281.235,-34 290.964,-34 299.743,-34"/>
<polygon fill="black" stroke="black" points="299.759,-37.5001 309.759,-34 299.759,-30.5001 299.759,-37.5001"/>
</g>
<!-- D&#45;&gt;nil -->
<g id="edge5" class="edge"><title>D&#45;&gt;nil</title>
<path fill="none" stroke="black" d="M336.147,-34C343.651,-34 353.548,-34 362.615,-34"/>
<polygon fill="black" stroke="black" points="362.685,-37.5001 372.685,-34 362.685,-30.5001 362.685,-37.5001"/>
</g>
<!-- X -->
<g id="node7" class="node"><title>X</title>
<polygon fill="none" stroke="blue" points="-0.0551758,0.4 -0.0551758,-24.4 26.0552,-24.4 26.0552,0.4 -0.0551758,0.4"/>
<text text-anchor="middle" x="13" y="-6.4" font-family="Times,serif" font-size="14.00" fill="blue">X</text>
</g>
<!-- Y -->
<g id="node9" class="node"><title>Y</title>
<polygon fill="none" stroke="blue" points="61.9448,0.4 61.9448,-24.4 88.0552,-24.4 88.0552,0.4 61.9448,0.4"/>
<text text-anchor="middle" x="75" y="-6.4" font-family="Times,serif" font-size="14.00" fill="blue">Y</text>
</g>
<!-- X&#45;&gt;Y -->
<g id="edge7" class="edge"><title>X&#45;&gt;Y</title>
<path fill="none" stroke="blue" d="M26.1419,-12C33.4612,-12 43.0104,-12 51.6519,-12"/>
<polygon fill="blue" stroke="blue" points="51.8762,-15.5001 61.8762,-12 51.8761,-8.5001 51.8762,-15.5001"/>
</g>
<!-- Z -->
<g id="node10" class="node"><title>Z</title>
<polygon fill="none" stroke="blue" points="124.724,0.4 124.724,-24.4 149.276,-24.4 149.276,0.4 124.724,0.4"/>
<text text-anchor="middle" x="137" y="-6.4" font-family="Times,serif" font-size="14.00" fill="blue">Z</text>
</g>
<!-- Y&#45;&gt;Z -->
<g id="edge8" class="edge"><title>Y&#45;&gt;Z</title>
<path fill="none" stroke="blue" d="M88.1419,-12C95.7373,-12 105.734,-12 114.626,-12"/>
<polygon fill="blue" stroke="blue" points="114.688,-15.5001 124.688,-12 114.688,-8.5001 114.688,-15.5001"/>
</g>
<!-- Z&#45;&gt;B -->
<g id="edge9" class="edge"><title>Z&#45;&gt;B</title>
<path fill="none" stroke="blue" d="M149.286,-16.138C156.882,-18.9234 167.144,-22.6862 176.291,-26.0399"/>
<polygon fill="blue" stroke="blue" points="175.348,-29.422 185.942,-29.5786 177.758,-22.8499 175.348,-29.422"/>
</g>
</g>
</svg>
