<?xml version="1.0" encoding="UTF-8" standalone="no"?>
<!DOCTYPE svg PUBLIC "-//W3C//DTD SVG 1.1//EN"
 "http://www.w3.org/Graphics/SVG/1.1/DTD/svg11.dtd">
<!-- Generated by graphviz version 2.28.0 (20121213.1421)
 -->
<!-- Title: ll Pages: 1 -->
<svg width="288pt" height="32pt"
 viewBox="0.00 0.00 288.00 32.00" xmlns="http://www.w3.org/2000/svg" xmlns:xlink="http://www.w3.org/1999/xlink">
<g id="graph1" class="graph" transform="scale(1 1) rotate(0) translate(4 28)">
<title>ll</title>
<polygon fill="white" stroke="white" points="-4,5 -4,-28 285,-28 285,5 -4,5"/>
<!-- nil -->
<g id="node1" class="node"><title>nil</title>
<text text-anchor="middle" x="264" y="-6.4" font-family="Times,serif" font-size="14.00">nil</text>
</g>
<!-- A -->
<g id="node2" class="node"><title>A</title>
<polygon fill="none" stroke="black" points="-0.0551758,0.4 -0.0551758,-24.4 26.0552,-24.4 26.0552,0.4 -0.0551758,0.4"/>
<text text-anchor="middle" x="13" y="-6.4" font-family="Times,serif" font-size="14.00">A</text>
</g>
<!-- B -->
<g id="node4" class="node"><title>B</title>
<polygon fill="none" stroke="black" points="62.3311,0.4 62.3311,-24.4 87.6689,-24.4 87.6689,0.4 62.3311,0.4"/>
<text text-anchor="middle" x="75" y="-6.4" font-family="Times,serif" font-size="14.00">B</text>
</g>
<!-- A&#45;&gt;B -->
<g id="edge2" class="edge"><title>A&#45;&gt;B</title>
<path fill="none" stroke="black" d="M26.1419,-12C33.6399,-12 43.478,-12 52.2832,-12"/>
<polygon fill="black" stroke="black" points="52.2845,-15.5001 62.2845,-12 52.2845,-8.5001 52.2845,-15.5001"/>
</g>
<!-- C -->
<g id="node5" class="node"><title>C</title>
<polygon fill="none" stroke="black" points="124.331,0.4 124.331,-24.4 149.669,-24.4 149.669,0.4 124.331,0.4"/>
<text text-anchor="middle" x="137" y="-6.4" font-family="Times,serif" font-size="14.00">C</text>
</g>
<!-- B&#45;&gt;C -->
<g id="edge3" class="edge"><title>B&#45;&gt;C</title>
<path fill="none" stroke="black" d="M87.8541,-12C95.3323,-12 105.22,-12 114.089,-12"/>
<polygon fill="black" stroke="black" points="114.171,-15.5001 124.171,-12 114.171,-8.5001 114.171,-15.5001"/>
</g>
<!-- D -->
<g id="node6" class="node"><title>D</title>
<polygon fill="none" stroke="black" points="185.945,0.4 185.945,-24.4 212.055,-24.4 212.055,0.4 185.945,0.4"/>
<text text-anchor="middle" x="199" y="-6.4" font-family="Times,serif" font-size="14.00">D</text>
</g>
<!-- C&#45;&gt;D -->
<g id="edge4" class="edge"><title>C&#45;&gt;D</title>
<path fill="none" stroke="black" d="M149.854,-12C157.235,-12 166.964,-12 175.743,-12"/>
<polygon fill="black" stroke="black" points="175.759,-15.5001 185.759,-12 175.759,-8.5001 175.759,-15.5001"/>
</g>
<!-- D&#45;&gt;nil -->
<g id="edge5" class="edge"><title>D&#45;&gt;nil</title>
<path fill="none" stroke="black" d="M212.147,-12C219.651,-12 229.548,-12 238.615,-12"/>
<polygon fill="black" stroke="black" points="238.685,-15.5001 248.685,-12 238.685,-8.5001 238.685,-15.5001"/>
</g>
</g>
</svg>
